<svg preserveAspectRatio="none" overflow="visible" style="display: block;" width="24" height="24" viewBox="0 0 24 24" fill="none" xmlns="http://www.w3.org/2000/svg">
<g id="SVG">
<path id="Vector" d="M23 19C23 20.1038 22.1038 21 21 21H3C1.89617 21 1 20.1038 1 19V8C1 6.89617 1.89617 6 3 6H7L9 3H15L17 6H21C22.1038 6 23 6.89617 23 8V19" stroke="#E5E5E5" stroke-width="1.8" stroke-linecap="round" stroke-linejoin="round"/>
<path id="Vector_2" d="M8 13C8 15.2077 9.79234 17 12 17C14.2077 17 16 15.2077 16 13C16 10.7923 14.2077 9 12 9C9.79234 9 8 10.7923 8 13V13" stroke="#E5E5E5" stroke-width="1.8" stroke-linecap="round" stroke-linejoin="round"/>
</g>
</svg>
